<?xml version="1.0" encoding="UTF-8"?>
<svg width="247px" height="20px" viewBox="0 0 247 20" version="1.1" xmlns="http://www.w3.org/2000/svg" xmlns:xlink="http://www.w3.org/1999/xlink">
    <title>Cyber-Duck Logo</title>
    <desc>Avery, the most prominent declaration of our brand.</desc>
    <g id="cd-logo">
        <g id="cd-avery">
            <path d="M0.363904236,0.409090909 C5.68600368,0.409090909 9.96187845,4.72727273 9.96187845,10 L0.363904236,10 L0.363904236,0.409090909 Z" id="avery-wing" fill="#51BEED"></path>
            <path d="M0.363904236,10 C0.363904236,15.3181818 4.68526703,19.5909091 9.96187845,19.5909091 L9.96187845,10 L0.363904236,10 Z" id="avery-body" fill="#379BD2"></path>
            <path d="M9.96187845,19.5909091 C15.2839779,19.5909091 19.5598527,15.3181818 19.5598527,10 L9.96187845,10 L9.96187845,19.5909091 Z" id="avery-chest" fill="#2C8ABE"></path>
            <path d="M19.5598527,0.409090909 C14.2377532,0.409090909 9.96187845,4.72727273 9.96187845,10 L19.5598527,10 L19.5598527,0.409090909 Z" id="avery-head" fill="#006892"></path>
            <path d="M29.2033149,0.409090909 C29.2033149,5.68181818 24.8819521,10 19.5598527,10 L19.5598527,0.409090909 L29.2033149,0.409090909 Z" id="avery-beak" fill="#F26623"></path>
        </g>
        <g id="cd-logo-text" transform="translate(38.664825, 0.000000)" fill="#006892">
            <path d="M0.0454880295,10.0454545 L0.0454880295,10 C0.0454880295,4.54545455 4.18489871,0.0909090909 10.0528545,0.0909090909 C13.6918969,0.0909090909 15.8298343,1.31818182 17.6493554,3.04545455 L14.9655617,6.13636364 C13.4644567,4.77272727 11.9633517,3.95454545 10.0528545,3.95454545 C6.82320442,3.95454545 4.50331492,6.63636364 4.50331492,9.95454545 L4.50331492,10 C4.50331492,13.2727273 6.77771639,16.0454545 10.0528545,16.0454545 C12.2362799,16.0454545 13.6009208,15.1818182 15.1020258,13.8181818 L17.7858195,16.5454545 C15.8298343,18.6363636 13.6009208,19.9545455 9.91639042,19.9545455 C4.23038674,19.9090909 0.0454880295,15.5454545 0.0454880295,10.0454545 Z" id="Shape"></path>
            <polygon id="Shape" points="28.3390424 12.0454545 20.9244936 0.409090909 25.8826888 0.409090909 30.4769797 8.13636364 35.1622468 0.409090909 39.9839779 0.409090909 32.6149171 11.9545455 32.6149171 19.5909091 28.3845304 19.5909091 28.3845304 12.0454545"></polygon>
            <path d="M44.6237569,0.409090909 L53.5394107,0.409090909 C55.7228361,0.409090909 57.4513812,1 58.5430939,2.09090909 C59.4073665,2.95454545 59.8622468,4.04545455 59.8622468,5.36363636 L59.8622468,5.40909091 C59.8622468,7.59090909 58.725046,8.77272727 57.3149171,9.54545455 C59.5438306,10.4090909 60.9084715,11.6818182 60.9084715,14.2727273 L60.9084715,14.3181818 C60.9084715,17.8181818 58.0427256,19.5909091 53.7213628,19.5909091 L44.5782689,19.5909091 L44.5782689,0.409090909 L44.6237569,0.409090909 Z M55.6773481,6.09090909 C55.6773481,4.81818182 54.6766114,4.13636364 52.9025783,4.13636364 L48.7176796,4.13636364 L48.7176796,8.18181818 L52.6296501,8.18181818 C54.4946593,8.18181818 55.6773481,7.59090909 55.6773481,6.13636364 L55.6773481,6.09090909 Z M53.6303867,11.6818182 L48.7631676,11.6818182 L48.7631676,15.9090909 L53.7668508,15.9090909 C55.63186,15.9090909 56.7690608,15.2727273 56.7690608,13.8181818 L56.7690608,13.7727273 C56.7690608,12.4545455 55.8138122,11.6818182 53.6303867,11.6818182 Z" id="Shape"></path>
            <polygon id="Shape" points="66.5034991 0.409090909 80.9686924 0.409090909 80.9686924 4.18181818 70.6883978 4.18181818 70.6883978 8.09090909 79.7405157 8.09090909 79.7405157 11.8181818 70.6883978 11.8181818 70.6883978 15.8636364 81.1051565 15.8636364 81.1051565 19.6363636 66.458011 19.6363636 66.458011 0.409090909"></polygon>
            <path d="M86.9276243,0.409090909 L95.706814,0.409090909 C98.1631676,0.409090909 100.028177,1.09090909 101.301842,2.36363636 C102.393554,3.45454545 102.939411,4.95454545 102.939411,6.77272727 L102.939411,6.81818182 C102.939411,9.90909091 101.256354,11.8636364 98.845488,12.7727273 L103.530755,19.6363636 L98.5725599,19.6363636 L94.4786372,13.5 L91.158011,13.5 L91.158011,19.6363636 L86.9276243,19.6363636 L86.9276243,0.409090909 L86.9276243,0.409090909 Z M95.4338858,9.72727273 C97.4808471,9.72727273 98.6635359,8.63636364 98.6635359,7 L98.6635359,6.95454545 C98.6635359,5.13636364 97.3898711,4.22727273 95.3429098,4.22727273 L91.158011,4.22727273 L91.158011,9.72727273 L95.4338858,9.72727273 Z" id="Shape"></path>
            <path d="M122.089871,0.409090909 L129.595396,0.409090909 C135.645304,0.409090909 139.784715,4.54545455 139.784715,9.95454545 L139.784715,10 C139.784715,15.4090909 135.599816,19.5909091 129.595396,19.5909091 L122.089871,19.5909091 L122.089871,0.409090909 Z M126.320258,4.22727273 L126.320258,15.8181818 L129.595396,15.8181818 C133.052486,15.8181818 135.372376,13.5 135.372376,10.0909091 L135.372376,10 C135.372376,6.59090909 133.052486,4.22727273 129.595396,4.22727273 L126.320258,4.22727273 Z" id="Shape"></path>
            <path d="M145.334254,11.3636364 L145.334254,0.409090909 L149.564641,0.409090909 L149.564641,11.2727273 C149.564641,14.4090909 151.111234,16 153.704052,16 C156.296869,16 157.843462,14.4545455 157.843462,11.4090909 L157.843462,0.409090909 L162.073849,0.409090909 L162.073849,11.2272727 C162.073849,17.0454545 158.798711,19.9090909 153.658564,19.9090909 C148.518416,19.9090909 145.334254,17 145.334254,11.3636364 Z" id="Shape"></path>
            <path d="M167.577901,10.0454545 L167.577901,10 C167.577901,4.54545455 171.717311,0.0909090909 177.585267,0.0909090909 C181.224309,0.0909090909 183.362247,1.31818182 185.181768,3.04545455 L182.497974,6.13636364 C180.996869,4.77272727 179.495764,3.95454545 177.585267,3.95454545 C174.355617,3.95454545 172.035727,6.63636364 172.035727,9.95454545 L172.035727,10 C172.035727,13.2727273 174.310129,16.0454545 177.585267,16.0454545 C179.768692,16.0454545 181.133333,15.1818182 182.634438,13.8181818 L185.318232,16.5454545 C183.362247,18.6363636 181.133333,19.9545455 177.448803,19.9545455 C171.762799,19.9090909 167.577901,15.5454545 167.577901,10.0454545 Z" id="Shape"></path>
            <polygon id="Shape" points="190.731308 0.409090909 194.961694 0.409090909 194.961694 8.81818182 202.740147 0.409090909 207.880295 0.409090909 200.056354 8.54545455 208.244199 19.5909091 203.14954 19.5909091 197.190608 11.4090909 194.961694 13.7272727 194.961694 19.5909091 190.731308 19.5909091"></polygon>
            <path d="M112.127993,9.09090909 C109.899079,9.09090909 108.125046,10.8636364 108.125046,13.0909091 L112.127993,13.0909091 C114.356906,13.0909091 116.130939,11.3181818 116.130939,9.09090909 L112.127993,9.09090909 Z" id="Shape"></path>
        </g>
    </g>
</svg>